IKResults
version=1
nRows=49
nColumns=24
inDegrees=yes

Units are S.I. units (second, meters, Newtons, ...)
If the header above contains a line with 'inDegrees', this indicates whether rotational values are in degrees (yes) or radians (no).

endheader
time	pelvis_tilt	pelvis_list	pelvis_rotation	pelvis_tx	pelvis_ty	pelvis_tz	hip_flexion_r	hip_adduction_r	hip_rotation_r	knee_angle_r	ankle_angle_r	subtalar_angle_r	mtp_angle_r	hip_flexion_l	hip_adduction_l	hip_rotation_l	knee_angle_l	ankle_angle_l	subtalar_angle_l	mtp_angle_l	lumbar_extension	lumbar_bending	lumbar_rotation
6.500000	11.565939	6.048254	-178.875387	0.325928	0.352241	-1.212370	103.284034	-38.921511	-2.496825	-136.458298	42.725750	13.283527	0.000000	118.441160	-37.876049	17.760984	-135.437606	40.018238	28.649675	0.000000	-20.944070	6.932369	5.604410
6.505000	11.673045	6.141113	-179.007502	0.325982	0.352182	-1.211770	103.325264	-38.840237	-2.580221	-136.372108	42.647217	13.270842	0.000000	118.651413	-37.916857	17.850397	-135.505932	40.028807	28.583284	0.000000	-20.900434	7.118769	5.740572
6.510000	13.104660	10.983322	-182.226883	0.320910	0.347806	-1.198134	99.906020	-38.254279	-8.154087	-134.909136	42.348920	15.439336	0.000000	125.166173	-37.387831	24.977349	-138.282212	41.059523	28.455042	0.000000	-19.532032	14.309296	9.989648
6.515000	11.757851	6.169152	-179.058367	0.326418	0.351871	-1.211312	103.504405	-38.763830	-2.533065	-136.344975	42.542911	13.176749	0.000000	118.843603	-37.894600	17.879430	-135.589017	39.962772	28.484135	0.000000	-20.923289	7.174879	5.832168
6.520000	13.068579	11.081175	-182.096689	0.321192	0.347709	-1.197752	99.827980	-38.370852	-8.188351	-134.907604	42.351362	15.504425	0.000000	125.166962	-37.226824	24.913088	-138.285562	41.050187	28.334432	0.000000	-19.639646	14.446476	9.961118
6.525000	11.706800	6.210213	-179.014603	0.326703	0.351729	-1.211468	103.443455	-38.738273	-2.543730	-136.363369	42.572641	13.213719	0.000000	118.870874	-37.882390	17.898700	-135.548050	39.933428	28.543476	0.000000	-21.047365	7.184582	5.863865
6.530000	11.836714	6.085871	-178.988995	0.327011	0.351273	-1.211555	103.791109	-38.698065	-2.309171	-136.390615	42.521855	13.182185	0.000000	118.952933	-37.883555	17.714307	-135.535579	39.876940	28.509647	0.000000	-20.928726	7.025907	5.811752
6.535000	11.846604	6.084574	-178.981893	0.327062	0.351248	-1.211523	103.824419	-38.688793	-2.288946	-136.390025	42.521329	13.163573	0.000000	118.979232	-37.890520	17.689174	-135.534278	39.856143	28.530996	0.000000	-20.949893	7.026273	5.851739
6.540000	11.685254	5.777008	-178.682464	0.327796	0.351485	-1.212424	104.046706	-38.746463	-1.913097	-136.499041	42.441348	12.822062	0.000000	118.514229	-37.796742	17.186456	-135.318618	39.727337	28.559263	0.000000	-21.239037	6.574248	5.516288
6.545000	11.678880	5.850669	-178.494691	0.327537	0.351391	-1.211867	104.016685	-39.006438	-1.893753	-136.528390	42.415276	12.854088	0.000000	118.515675	-37.597037	17.136866	-135.357773	39.704927	28.585296	0.000000	-21.237105	6.770390	5.341598
6.550000	13.264400	10.902614	-182.181016	0.321941	0.346929	-1.197875	100.439367	-38.143471	-7.840575	-134.934896	42.107278	15.205638	0.000000	125.505485	-37.360492	24.775214	-138.299669	40.805951	28.550478	0.000000	-19.668884	14.199027	10.064816
6.555000	13.271649	10.951295	-182.050543	0.321913	0.346808	-1.197595	100.421456	-38.291838	-7.830340	-134.945153	42.076571	15.256780	0.000000	125.510730	-37.216831	24.718068	-138.311229	40.785156	28.581184	0.000000	-19.653938	14.298386	9.957171
6.560000	13.235316	10.984025	-182.031829	0.322045	0.346817	-1.197646	100.368348	-38.277898	-7.864167	-134.949522	42.114488	15.285911	0.000000	125.501301	-37.207564	24.716079	-138.287336	40.788301	28.524093	0.000000	-19.730500	14.291563	10.019204
6.565000	13.186340	11.018612	-182.040219	0.322129	0.346909	-1.197711	100.287285	-38.238569	-7.896040	-134.943857	42.137624	15.334761	0.000000	125.505325	-37.219514	24.782233	-138.281845	40.768946	28.524754	0.000000	-19.825177	14.283379	10.099436
6.570000	12.725518	8.767640	-180.673107	0.324371	0.348062	-1.203998	102.249350	-38.421081	-5.222420	-135.711023	42.297771	14.317953	0.000000	122.917656	-37.662869	21.651470	-137.140965	40.327256	28.676425	0.000000	-20.080663	10.923028	8.221837
6.575000	11.865533	7.166827	-179.476649	0.324988	0.349422	-1.209553	102.947896	-38.688442	-3.394918	-136.489313	42.594435	13.676666	0.000000	120.509233	-37.990567	19.605464	-136.280973	40.021946	29.249183	0.000000	-20.861706	8.392982	6.678128
6.580000	11.319966	5.731448	-178.437712	0.327874	0.351453	-1.213435	103.802695	-38.776605	-1.811725	-136.725475	42.502697	12.746801	0.000000	118.310775	-37.867464	17.265503	-135.279212	39.516988	29.062042	0.000000	-21.820726	6.326403	5.411678
6.585000	11.714284	5.451080	-178.446190	0.328552	0.350562	-1.213296	104.668121	-38.673181	-1.326382	-136.720274	42.323843	12.600241	0.000000	118.509543	-37.851595	16.792910	-135.257171	39.428727	28.840750	0.000000	-21.445270	6.043525	5.238526
6.590000	11.398047	5.986997	-178.580464	0.327926	0.351685	-1.212449	103.586931	-38.762226	-2.153029	-136.532602	42.401710	12.810574	0.000000	118.605212	-37.820577	17.539547	-135.355746	39.482545	29.017378	0.000000	-21.861948	6.753916	5.645420
6.595000	11.437544	6.008910	-178.590573	0.327982	0.351647	-1.212429	103.630936	-38.745057	-2.184047	-136.527451	42.306807	12.804465	0.000000	118.661777	-37.836519	17.525175	-135.322936	39.499012	29.023989	0.000000	-21.853469	6.757615	5.685880
6.600000	11.441000	6.017223	-178.579082	0.328016	0.351567	-1.212468	103.646407	-38.737727	-2.184597	-136.540359	42.293725	12.798899	0.000000	118.699918	-37.834307	17.539514	-135.317512	39.467523	29.028018	0.000000	-21.870446	6.724320	5.730552
6.605000	11.543487	5.997100	-178.524067	0.328090	0.351263	-1.212474	103.806613	-38.778692	-2.112403	-136.555068	42.323142	12.835763	0.000000	118.802815	-37.779598	17.483358	-135.317456	39.448557	29.069562	0.000000	-21.757408	6.690284	5.672444
6.610000	11.343821	5.752539	-178.571245	0.327614	0.351159	-1.214204	103.789659	-38.555148	-1.927329	-136.792071	42.428712	12.797170	0.000000	118.557650	-38.156373	17.531554	-135.267996	39.450097	29.426160	0.000000	-21.909719	6.132869	5.619741
6.615000	11.751799	5.874225	-178.347438	0.328417	0.350685	-1.212132	104.268317	-38.944817	-1.767186	-136.583597	42.309633	12.931810	0.000000	118.880742	-37.596186	17.139474	-135.339205	39.374090	28.921774	0.000000	-21.537251	6.621907	5.444872
6.620000	11.852194	5.759137	-178.527389	0.328815	0.350583	-1.212524	104.511195	-38.669458	-1.695470	-136.562440	42.237094	12.735194	0.000000	118.958301	-37.798069	17.079841	-135.305966	39.351778	28.853769	0.000000	-21.506199	6.402586	5.559423
6.625000	11.847194	5.763915	-178.530714	0.328808	0.350588	-1.212414	104.522612	-38.680575	-1.685486	-136.566945	42.240351	12.723775	0.000000	118.971976	-37.799114	17.092017	-135.344267	39.346328	28.854069	0.000000	-21.532717	6.405868	5.568624
6.630000	11.857164	5.747715	-178.533149	0.328818	0.350624	-1.212418	104.549967	-38.666032	-1.672929	-136.562816	42.207707	12.641443	0.000000	118.971890	-37.818907	17.064555	-135.337897	39.302123	28.893760	0.000000	-21.552616	6.376179	5.584497
6.635000	11.931903	5.893714	-178.706448	0.328433	0.350203	-1.212409	104.486866	-38.549666	-1.875161	-136.578509	42.190298	12.693113	0.000000	119.312262	-37.936318	17.424756	-135.431948	39.340733	29.049658	0.000000	-21.443388	6.509426	5.760580
6.640000	11.872764	5.770980	-178.528526	0.328707	0.350342	-1.212677	104.557301	-38.625918	-1.707098	-136.602255	42.179394	12.614615	0.000000	119.096896	-37.844830	17.168897	-135.315927	39.266279	29.074271	0.000000	-21.567194	6.340694	5.574191
6.645000	11.896390	5.752721	-178.522230	0.328699	0.350270	-1.212759	104.606195	-38.600587	-1.674867	-136.613889	42.174019	12.646404	0.000000	119.119585	-37.851911	17.150058	-135.304827	39.251649	29.075580	0.000000	-21.551523	6.283092	5.620268
6.650000	11.691255	5.911341	-178.504551	0.328468	0.350736	-1.212748	104.165542	-38.641715	-1.930651	-136.603134	42.244421	12.678925	0.000000	119.041031	-37.837369	17.383950	-135.313328	39.267172	29.115570	0.000000	-21.810292	6.436609	5.710846
6.655000	11.722993	5.910173	-178.505573	0.328526	0.350632	-1.212683	104.221900	-38.629772	-1.906361	-136.608044	42.207507	12.676770	0.000000	119.085196	-37.822514	17.382931	-135.326766	39.234638	29.129286	0.000000	-21.794602	6.428064	5.736742
6.660000	11.819629	5.897621	-178.449025	0.328573	0.350315	-1.212556	104.371397	-38.675810	-1.823994	-136.630028	42.241010	12.661995	0.000000	119.169252	-37.741061	17.328127	-135.347108	39.229427	29.139261	0.000000	-21.693505	6.438474	5.644203
6.665000	11.824250	5.890047	-178.450275	0.328635	0.350197	-1.212628	104.394026	-38.641097	-1.799907	-136.641023	42.238789	12.656145	0.000000	119.180318	-37.746395	17.313992	-135.346807	39.204463	29.113156	0.000000	-21.717122	6.428416	5.574989
6.670000	11.826714	5.886518	-178.438444	0.328676	0.350157	-1.212625	104.413885	-38.625416	-1.772763	-136.647350	42.243911	12.647684	0.000000	119.191474	-37.723880	17.329168	-135.363865	39.199237	29.113903	0.000000	-21.742974	6.422587	5.571521
6.675000	11.844315	5.855262	-178.432058	0.328698	0.350111	-1.212626	104.486193	-38.594617	-1.716999	-136.659450	42.243268	12.523498	0.000000	119.192399	-37.724490	17.283523	-135.365753	39.155657	29.116367	0.000000	-21.746818	6.375182	5.554256
6.680000	11.846051	5.858871	-178.419798	0.328676	0.350083	-1.212686	104.497062	-38.572252	-1.702063	-136.670841	42.236787	12.519030	0.000000	119.205480	-37.712632	17.290993	-135.364474	39.162528	29.117984	0.000000	-21.768769	6.356460	5.547533
6.685000	11.860061	5.839628	-178.412771	0.328648	0.349995	-1.212773	104.542393	-38.540235	-1.664455	-136.688077	42.239390	12.469708	0.000000	119.218906	-37.715591	17.279818	-135.348851	39.160966	29.167750	0.000000	-21.768387	6.307215	5.540471
6.690000	11.815390	5.659085	-178.395255	0.328480	0.349971	-1.212436	104.684520	-38.536204	-1.320919	-136.701270	42.217996	12.565415	0.000000	119.291264	-37.624539	17.563804	-135.100481	38.363668	29.956423	0.000000	-21.819558	6.143192	5.486021
6.695000	11.867737	5.842263	-178.389168	0.328634	0.349817	-1.212811	104.564442	-38.494241	-1.631897	-136.709076	42.196862	12.462999	0.000000	119.256412	-37.682129	17.294626	-135.351108	39.144716	29.230640	0.000000	-21.803394	6.264694	5.566679
6.700000	11.896535	5.858119	-178.381387	0.328685	0.349703	-1.212725	104.603104	-38.476882	-1.621216	-136.713377	42.163880	12.423808	0.000000	119.305702	-37.643633	17.304983	-135.359448	39.097876	29.175468	0.000000	-21.793849	6.272097	5.614510
6.705000	11.898716	5.866465	-178.373532	0.328737	0.349651	-1.212611	104.614498	-38.460053	-1.602068	-136.723626	42.164944	12.407892	0.000000	119.318494	-37.617890	17.311323	-135.383461	39.095091	29.169811	0.000000	-21.813624	6.285612	5.628653
6.710000	11.892686	5.768310	-178.366030	0.328718	0.349605	-1.212318	104.728383	-38.452829	-1.401238	-136.727936	42.135692	12.359666	0.000000	119.412511	-37.536056	17.524204	-135.194235	38.517555	29.649438	0.000000	-21.839937	6.213978	5.590931
6.715000	11.867372	5.692130	-178.357227	0.328670	0.349557	-1.212262	104.782952	-38.427868	-1.250459	-136.744005	42.148689	12.375944	0.000000	119.441354	-37.513131	17.631465	-135.148625	38.217324	29.945471	0.000000	-21.877345	6.142230	5.563143
6.720000	12.038925	5.774463	-178.380202	0.329003	0.349151	-1.212874	104.915073	-38.302426	-1.423013	-136.761012	42.133861	12.186321	0.000000	119.463459	-37.630160	17.218668	-135.397955	39.042787	29.155051	0.000000	-21.730634	6.136250	5.579880
6.725000	11.977989	5.560309	-178.349860	0.328790	0.349151	-1.212529	105.080012	-38.310995	-1.021144	-136.784730	42.159007	12.262874	0.000000	119.503625	-37.565530	17.468731	-135.138552	38.216149	29.959246	0.000000	-21.793703	5.946112	5.503818
6.730000	11.968750	5.586860	-178.353864	0.328730	0.349087	-1.212585	105.055345	-38.276366	-1.049562	-136.805952	42.185720	12.218922	0.000000	119.532669	-37.562008	17.516573	-135.156104	38.237164	29.942511	0.000000	-21.822387	5.953071	5.529218
6.735000	12.000949	5.852365	-178.297222	0.328877	0.349172	-1.212796	104.816058	-38.315723	-1.469582	-136.780299	42.175692	12.067981	0.000000	119.460192	-37.536542	17.351343	-134.904319	38.696716	29.453777	0.000000	-21.839107	6.206140	5.622763
6.740000	11.986756	5.596560	-178.362109	0.328688	0.348950	-1.212455	105.096411	-38.225819	-1.025257	-136.816906	42.140100	12.110684	0.000000	119.593890	-37.563536	17.543117	-135.181135	38.211503	29.985294	0.000000	-21.848580	5.952587	5.600710
